<?xml version="1.0" encoding="UTF-8" standalone="no"?>
<!DOCTYPE svg PUBLIC "-//W3C//DTD SVG 1.1//EN"
 "http://www.w3.org/Graphics/SVG/1.1/DTD/svg11.dtd">
<!-- Generated by graphviz version 2.44.1 (20200629.0846)
 -->
<!-- Title: AVO.h Pages: 1 -->
<svg width="276pt" height="196pt"
 viewBox="0.00 0.00 276.00 196.00" xmlns="http://www.w3.org/2000/svg" xmlns:xlink="http://www.w3.org/1999/xlink">
<g id="graph0" class="graph" transform="scale(1 1) rotate(0) translate(4 192)">
<title>AVO.h</title>
<polygon fill="white" stroke="transparent" points="-4,4 -4,-192 272,-192 272,4 -4,4"/>
<!-- Node1 -->
<g id="node1" class="node">
<title>Node1</title>
<g id="a_node1"><a xlink:title="Includes all public headers.">
<polygon fill="#bfbfbf" stroke="black" points="69.5,-168.5 69.5,-187.5 113.5,-187.5 113.5,-168.5 69.5,-168.5"/>
<text text-anchor="middle" x="91.5" y="-175.5" font-family="Helvetica,sans-Serif" font-size="10.00">AVO.h</text>
</a>
</g>
</g>
<!-- Node2 -->
<g id="node2" class="node">
<title>Node2</title>
<g id="a_node2"><a xlink:title=" ">
<polygon fill="white" stroke="#bfbfbf" points="0,-0.5 0,-19.5 53,-19.5 53,-0.5 0,-0.5"/>
<text text-anchor="middle" x="26.5" y="-7.5" font-family="Helvetica,sans-Serif" font-size="10.00">Export.h</text>
</a>
</g>
</g>
<!-- Node1&#45;&gt;Node2 -->
<g id="edge1" class="edge">
<title>Node1&#45;&gt;Node2</title>
<path fill="none" stroke="midnightblue" d="M69.37,-168.77C53.73,-161.65 33.92,-149.68 24.5,-132 7.1,-99.36 14.58,-54.39 20.95,-29.49"/>
<polygon fill="midnightblue" stroke="midnightblue" points="24.4,-30.14 23.7,-19.57 17.65,-28.27 24.4,-30.14"/>
</g>
<!-- Node3 -->
<g id="node3" class="node">
<title>Node3</title>
<g id="a_node3"><a xlink:title=" ">
<polygon fill="white" stroke="#bfbfbf" points="34,-112.5 34,-131.5 77,-131.5 77,-112.5 34,-112.5"/>
<text text-anchor="middle" x="55.5" y="-119.5" font-family="Helvetica,sans-Serif" font-size="10.00">Line.h</text>
</a>
</g>
</g>
<!-- Node1&#45;&gt;Node3 -->
<g id="edge2" class="edge">
<title>Node1&#45;&gt;Node3</title>
<path fill="none" stroke="midnightblue" d="M85.56,-168.08C80.52,-160.53 73.16,-149.49 66.99,-140.23"/>
<polygon fill="midnightblue" stroke="midnightblue" points="69.79,-138.13 61.33,-131.75 63.97,-142.01 69.79,-138.13"/>
</g>
<!-- Node4 -->
<g id="node4" class="node">
<title>Node4</title>
<g id="a_node4"><a xlink:href="_simulator_8h.html" target="_top" xlink:title="Declares the Simulator class.">
<polygon fill="white" stroke="black" points="95,-112.5 95,-131.5 160,-131.5 160,-112.5 95,-112.5"/>
<text text-anchor="middle" x="127.5" y="-119.5" font-family="Helvetica,sans-Serif" font-size="10.00">Simulator.h</text>
</a>
</g>
</g>
<!-- Node1&#45;&gt;Node4 -->
<g id="edge3" class="edge">
<title>Node1&#45;&gt;Node4</title>
<path fill="none" stroke="midnightblue" d="M97.44,-168.08C102.48,-160.53 109.84,-149.49 116.01,-140.23"/>
<polygon fill="midnightblue" stroke="midnightblue" points="119.03,-142.01 121.67,-131.75 113.21,-138.13 119.03,-142.01"/>
</g>
<!-- Node7 -->
<g id="node7" class="node">
<title>Node7</title>
<g id="a_node7"><a xlink:href="_vector2_8h.html" target="_top" xlink:title="Declares and defines the Vector2 class.">
<polygon fill="white" stroke="black" points="185,-56.5 185,-75.5 244,-75.5 244,-56.5 185,-56.5"/>
<text text-anchor="middle" x="214.5" y="-63.5" font-family="Helvetica,sans-Serif" font-size="10.00">Vector2.h</text>
</a>
</g>
</g>
<!-- Node1&#45;&gt;Node7 -->
<g id="edge11" class="edge">
<title>Node1&#45;&gt;Node7</title>
<path fill="none" stroke="midnightblue" d="M111.67,-168.41C128.44,-160.61 152.25,-147.89 169.5,-132 184.29,-118.38 196.88,-99.07 204.95,-85.04"/>
<polygon fill="midnightblue" stroke="midnightblue" points="208.23,-86.36 210,-75.91 202.1,-82.97 208.23,-86.36"/>
</g>
<!-- Node4&#45;&gt;Node2 -->
<g id="edge6" class="edge">
<title>Node4&#45;&gt;Node2</title>
<path fill="none" stroke="midnightblue" d="M100.63,-112.42C82.59,-105.35 59.63,-93.6 45.5,-76 34.81,-62.69 30.14,-43.57 28.09,-29.51"/>
<polygon fill="midnightblue" stroke="midnightblue" points="31.56,-29.07 26.95,-19.53 24.61,-29.86 31.56,-29.07"/>
</g>
<!-- Node5 -->
<g id="node5" class="node">
<title>Node5</title>
<g id="a_node5"><a xlink:title=" ">
<polygon fill="white" stroke="#bfbfbf" points="55,-56.5 55,-75.5 104,-75.5 104,-56.5 55,-56.5"/>
<text text-anchor="middle" x="79.5" y="-63.5" font-family="Helvetica,sans-Serif" font-size="10.00">cstddef</text>
</a>
</g>
</g>
<!-- Node4&#45;&gt;Node5 -->
<g id="edge4" class="edge">
<title>Node4&#45;&gt;Node5</title>
<path fill="none" stroke="midnightblue" d="M119.57,-112.08C112.65,-104.3 102.43,-92.8 94.05,-83.37"/>
<polygon fill="midnightblue" stroke="midnightblue" points="96.54,-80.9 87.28,-75.75 91.31,-85.55 96.54,-80.9"/>
</g>
<!-- Node6 -->
<g id="node6" class="node">
<title>Node6</title>
<g id="a_node6"><a xlink:title=" ">
<polygon fill="white" stroke="#bfbfbf" points="122.5,-56.5 122.5,-75.5 166.5,-75.5 166.5,-56.5 122.5,-56.5"/>
<text text-anchor="middle" x="144.5" y="-63.5" font-family="Helvetica,sans-Serif" font-size="10.00">vector</text>
</a>
</g>
</g>
<!-- Node4&#45;&gt;Node6 -->
<g id="edge5" class="edge">
<title>Node4&#45;&gt;Node6</title>
<path fill="none" stroke="midnightblue" d="M130.31,-112.08C132.58,-104.85 135.87,-94.41 138.71,-85.4"/>
<polygon fill="midnightblue" stroke="midnightblue" points="142.08,-86.34 141.75,-75.75 135.4,-84.24 142.08,-86.34"/>
</g>
<!-- Node4&#45;&gt;Node7 -->
<g id="edge7" class="edge">
<title>Node4&#45;&gt;Node7</title>
<path fill="none" stroke="midnightblue" d="M141.48,-112.32C155.05,-103.9 175.88,-90.97 191.82,-81.07"/>
<polygon fill="midnightblue" stroke="midnightblue" points="193.91,-83.9 200.56,-75.65 190.21,-77.95 193.91,-83.9"/>
</g>
<!-- Node7&#45;&gt;Node2 -->
<g id="edge10" class="edge">
<title>Node7&#45;&gt;Node2</title>
<path fill="none" stroke="midnightblue" d="M184.71,-56.44C151.73,-46.97 98.54,-31.69 63.06,-21.5"/>
<polygon fill="midnightblue" stroke="midnightblue" points="63.69,-18.04 53.11,-18.64 61.76,-24.77 63.69,-18.04"/>
</g>
<!-- Node8 -->
<g id="node8" class="node">
<title>Node8</title>
<g id="a_node8"><a xlink:title=" ">
<polygon fill="white" stroke="#bfbfbf" points="160.5,-0.5 160.5,-19.5 204.5,-19.5 204.5,-0.5 160.5,-0.5"/>
<text text-anchor="middle" x="182.5" y="-7.5" font-family="Helvetica,sans-Serif" font-size="10.00">cmath</text>
</a>
</g>
</g>
<!-- Node7&#45;&gt;Node8 -->
<g id="edge8" class="edge">
<title>Node7&#45;&gt;Node8</title>
<path fill="none" stroke="midnightblue" d="M209.22,-56.08C204.79,-48.61 198.34,-37.72 192.88,-28.52"/>
<polygon fill="midnightblue" stroke="midnightblue" points="195.79,-26.57 187.69,-19.75 189.77,-30.14 195.79,-26.57"/>
</g>
<!-- Node9 -->
<g id="node9" class="node">
<title>Node9</title>
<g id="a_node9"><a xlink:title=" ">
<polygon fill="white" stroke="#bfbfbf" points="223,-0.5 223,-19.5 268,-19.5 268,-0.5 223,-0.5"/>
<text text-anchor="middle" x="245.5" y="-7.5" font-family="Helvetica,sans-Serif" font-size="10.00">iosfwd</text>
</a>
</g>
</g>
<!-- Node7&#45;&gt;Node9 -->
<g id="edge9" class="edge">
<title>Node7&#45;&gt;Node9</title>
<path fill="none" stroke="midnightblue" d="M219.62,-56.08C223.91,-48.61 230.16,-37.72 235.44,-28.52"/>
<polygon fill="midnightblue" stroke="midnightblue" points="238.53,-30.17 240.48,-19.75 232.46,-26.68 238.53,-30.17"/>
</g>
</g>
</svg>
