<?xml version="1.0" encoding="UTF-8" standalone="no"?>
<!DOCTYPE svg PUBLIC "-//W3C//DTD SVG 1.1//EN"
 "http://www.w3.org/Graphics/SVG/1.1/DTD/svg11.dtd">
<!-- Generated by graphviz version 2.44.1 (20200629.0846)
 -->
<!-- Title: Simulator.h Pages: 1 -->
<svg width="297pt" height="140pt"
 viewBox="0.00 0.00 297.00 140.00" xmlns="http://www.w3.org/2000/svg" xmlns:xlink="http://www.w3.org/1999/xlink">
<g id="graph0" class="graph" transform="scale(1 1) rotate(0) translate(4 136)">
<title>Simulator.h</title>
<polygon fill="white" stroke="transparent" points="-4,4 -4,-136 293,-136 293,4 -4,4"/>
<!-- Node1 -->
<g id="node1" class="node">
<title>Node1</title>
<g id="a_node1"><a xlink:title="Declares the Simulator class.">
<polygon fill="#bfbfbf" stroke="black" points="82,-112.5 82,-131.5 147,-131.5 147,-112.5 82,-112.5"/>
<text text-anchor="middle" x="114.5" y="-119.5" font-family="Helvetica,sans-Serif" font-size="10.00">Simulator.h</text>
</a>
</g>
</g>
<!-- Node2 -->
<g id="node2" class="node">
<title>Node2</title>
<g id="a_node2"><a xlink:title=" ">
<polygon fill="white" stroke="#bfbfbf" points="0,-56.5 0,-75.5 49,-75.5 49,-56.5 0,-56.5"/>
<text text-anchor="middle" x="24.5" y="-63.5" font-family="Helvetica,sans-Serif" font-size="10.00">cstddef</text>
</a>
</g>
</g>
<!-- Node1&#45;&gt;Node2 -->
<g id="edge1" class="edge">
<title>Node1&#45;&gt;Node2</title>
<path fill="none" stroke="midnightblue" d="M100.04,-112.32C86,-103.9 64.45,-90.97 47.96,-81.07"/>
<polygon fill="midnightblue" stroke="midnightblue" points="49.3,-77.8 38.92,-75.65 45.7,-83.8 49.3,-77.8"/>
</g>
<!-- Node3 -->
<g id="node3" class="node">
<title>Node3</title>
<g id="a_node3"><a xlink:title=" ">
<polygon fill="white" stroke="#bfbfbf" points="67.5,-56.5 67.5,-75.5 111.5,-75.5 111.5,-56.5 67.5,-56.5"/>
<text text-anchor="middle" x="89.5" y="-63.5" font-family="Helvetica,sans-Serif" font-size="10.00">vector</text>
</a>
</g>
</g>
<!-- Node1&#45;&gt;Node3 -->
<g id="edge2" class="edge">
<title>Node1&#45;&gt;Node3</title>
<path fill="none" stroke="midnightblue" d="M110.37,-112.08C106.99,-104.77 102.08,-94.18 97.88,-85.1"/>
<polygon fill="midnightblue" stroke="midnightblue" points="100.93,-83.36 93.55,-75.75 94.58,-86.3 100.93,-83.36"/>
</g>
<!-- Node4 -->
<g id="node4" class="node">
<title>Node4</title>
<g id="a_node4"><a xlink:title=" ">
<polygon fill="white" stroke="#bfbfbf" points="110,-0.5 110,-19.5 163,-19.5 163,-0.5 110,-0.5"/>
<text text-anchor="middle" x="136.5" y="-7.5" font-family="Helvetica,sans-Serif" font-size="10.00">Export.h</text>
</a>
</g>
</g>
<!-- Node1&#45;&gt;Node4 -->
<g id="edge3" class="edge">
<title>Node1&#45;&gt;Node4</title>
<path fill="none" stroke="midnightblue" d="M116.23,-112.37C119.78,-94.62 127.97,-53.67 132.78,-29.6"/>
<polygon fill="midnightblue" stroke="midnightblue" points="136.25,-30.08 134.78,-19.59 129.39,-28.71 136.25,-30.08"/>
</g>
<!-- Node5 -->
<g id="node5" class="node">
<title>Node5</title>
<g id="a_node5"><a xlink:href="_vector2_8h.html" target="_top" xlink:title="Declares and defines the Vector2 class.">
<polygon fill="white" stroke="black" points="172,-56.5 172,-75.5 231,-75.5 231,-56.5 172,-56.5"/>
<text text-anchor="middle" x="201.5" y="-63.5" font-family="Helvetica,sans-Serif" font-size="10.00">Vector2.h</text>
</a>
</g>
</g>
<!-- Node1&#45;&gt;Node5 -->
<g id="edge4" class="edge">
<title>Node1&#45;&gt;Node5</title>
<path fill="none" stroke="midnightblue" d="M128.48,-112.32C142.05,-103.9 162.88,-90.97 178.82,-81.07"/>
<polygon fill="midnightblue" stroke="midnightblue" points="180.91,-83.9 187.56,-75.65 177.21,-77.95 180.91,-83.9"/>
</g>
<!-- Node5&#45;&gt;Node4 -->
<g id="edge7" class="edge">
<title>Node5&#45;&gt;Node4</title>
<path fill="none" stroke="midnightblue" d="M191.06,-56.32C181.35,-48.26 166.68,-36.08 155,-26.37"/>
<polygon fill="midnightblue" stroke="midnightblue" points="157.06,-23.53 147.13,-19.83 152.59,-28.92 157.06,-23.53"/>
</g>
<!-- Node6 -->
<g id="node6" class="node">
<title>Node6</title>
<g id="a_node6"><a xlink:title=" ">
<polygon fill="white" stroke="#bfbfbf" points="181.5,-0.5 181.5,-19.5 225.5,-19.5 225.5,-0.5 181.5,-0.5"/>
<text text-anchor="middle" x="203.5" y="-7.5" font-family="Helvetica,sans-Serif" font-size="10.00">cmath</text>
</a>
</g>
</g>
<!-- Node5&#45;&gt;Node6 -->
<g id="edge5" class="edge">
<title>Node5&#45;&gt;Node6</title>
<path fill="none" stroke="midnightblue" d="M201.83,-56.08C202.09,-49.01 202.47,-38.86 202.8,-29.99"/>
<polygon fill="midnightblue" stroke="midnightblue" points="206.3,-29.87 203.18,-19.75 199.31,-29.61 206.3,-29.87"/>
</g>
<!-- Node7 -->
<g id="node7" class="node">
<title>Node7</title>
<g id="a_node7"><a xlink:title=" ">
<polygon fill="white" stroke="#bfbfbf" points="244,-0.5 244,-19.5 289,-19.5 289,-0.5 244,-0.5"/>
<text text-anchor="middle" x="266.5" y="-7.5" font-family="Helvetica,sans-Serif" font-size="10.00">iosfwd</text>
</a>
</g>
</g>
<!-- Node5&#45;&gt;Node7 -->
<g id="edge6" class="edge">
<title>Node5&#45;&gt;Node7</title>
<path fill="none" stroke="midnightblue" d="M211.94,-56.32C221.65,-48.26 236.32,-36.08 248,-26.37"/>
<polygon fill="midnightblue" stroke="midnightblue" points="250.41,-28.92 255.87,-19.83 245.94,-23.53 250.41,-28.92"/>
</g>
</g>
</svg>
