<?xml version="1.0" encoding="UTF-8" standalone="no"?>
<!DOCTYPE svg PUBLIC "-//W3C//DTD SVG 1.1//EN"
 "http://www.w3.org/Graphics/SVG/1.1/DTD/svg11.dtd">
<!-- Generated by graphviz version 2.44.1 (20200629.0846)
 -->
<!-- Title: Vector2.h Pages: 1 -->
<svg width="101pt" height="140pt"
 viewBox="0.00 0.00 101.00 140.00" xmlns="http://www.w3.org/2000/svg" xmlns:xlink="http://www.w3.org/1999/xlink">
<g id="graph0" class="graph" transform="scale(1 1) rotate(0) translate(4 136)">
<title>Vector2.h</title>
<polygon fill="white" stroke="transparent" points="-4,4 -4,-136 97,-136 97,4 -4,4"/>
<!-- Node1 -->
<g id="node1" class="node">
<title>Node1</title>
<g id="a_node1"><a xlink:title="Declares and defines the Vector2 class.">
<polygon fill="#bfbfbf" stroke="black" points="0,-112.5 0,-131.5 59,-131.5 59,-112.5 0,-112.5"/>
<text text-anchor="middle" x="29.5" y="-119.5" font-family="Helvetica,sans-Serif" font-size="10.00">Vector2.h</text>
</a>
</g>
</g>
<!-- Node2 -->
<g id="node2" class="node">
<title>Node2</title>
<g id="a_node2"><a xlink:href="_a_v_o_8h.html" target="_top" xlink:title="Includes all public headers.">
<polygon fill="white" stroke="black" points="7.5,-0.5 7.5,-19.5 51.5,-19.5 51.5,-0.5 7.5,-0.5"/>
<text text-anchor="middle" x="29.5" y="-7.5" font-family="Helvetica,sans-Serif" font-size="10.00">AVO.h</text>
</a>
</g>
</g>
<!-- Node1&#45;&gt;Node2 -->
<g id="edge1" class="edge">
<title>Node1&#45;&gt;Node2</title>
<path fill="none" stroke="midnightblue" d="M23.96,-102.66C21.79,-94.57 19.57,-84.89 18.5,-76 16.06,-55.77 22.33,-32.25 26.38,-19.79"/>
<polygon fill="midnightblue" stroke="midnightblue" points="20.66,-103.83 26.77,-112.49 27.39,-101.91 20.66,-103.83"/>
</g>
<!-- Node3 -->
<g id="node3" class="node">
<title>Node3</title>
<g id="a_node3"><a xlink:href="_simulator_8h.html" target="_top" xlink:title="Declares the Simulator class.">
<polygon fill="white" stroke="black" points="28,-56.5 28,-75.5 93,-75.5 93,-56.5 28,-56.5"/>
<text text-anchor="middle" x="60.5" y="-63.5" font-family="Helvetica,sans-Serif" font-size="10.00">Simulator.h</text>
</a>
</g>
</g>
<!-- Node1&#45;&gt;Node3 -->
<g id="edge2" class="edge">
<title>Node1&#45;&gt;Node3</title>
<path fill="none" stroke="midnightblue" d="M39.68,-103.27C44.97,-94.05 51.22,-83.17 55.48,-75.75"/>
<polygon fill="midnightblue" stroke="midnightblue" points="36.56,-101.67 34.62,-112.08 42.63,-105.15 36.56,-101.67"/>
</g>
<!-- Node3&#45;&gt;Node2 -->
<g id="edge3" class="edge">
<title>Node3&#45;&gt;Node2</title>
<path fill="none" stroke="midnightblue" d="M50.32,-47.27C45.03,-38.05 38.78,-27.17 34.52,-19.75"/>
<polygon fill="midnightblue" stroke="midnightblue" points="47.37,-49.15 55.38,-56.08 53.44,-45.67 47.37,-49.15"/>
</g>
</g>
</svg>
